Coordinates
version=1
nRows=9
nColumns=36
inDegrees=yes

Units are S.I. units (second, meters, Newtons, ...)
If the header above contains a line with 'inDegrees', this indicates whether rotational values are in degrees (yes) or radians (no).

endheader
time	pelvis_tilt	pelvis_list	pelvis_rotation	pelvis_tx	pelvis_ty	pelvis_tz	hip_flexion_r	hip_adduction_r	hip_rotation_r	knee_angle_r	knee_angle_r_beta	ankle_angle_r	subtalar_angle_r	mtp_angle_r	hip_flexion_l	hip_adduction_l	hip_rotation_l	knee_angle_l	knee_angle_l_beta	ankle_angle_l	subtalar_angle_l	mtp_angle_l	lumbar_extension	lumbar_bending	lumbar_rotation	arm_flex_r	arm_add_r	arm_rot_r	elbow_flex_r	pro_sup_r	arm_flex_l	arm_add_l	arm_rot_l	elbow_flex_l	pro_sup_l
      1.00000000	     -0.87149767	     -1.04557210	     -5.76708179	      0.70186210	      1.34379260	      0.08541394	     -0.50063308	      1.04754664	      7.88480045	      2.74367874	      0.04788623	     11.03523095	     -6.58283865	     -7.49999987	      1.13660549	     -1.26720138	      6.12803644	      8.80201859	      0.15362421	     12.40025409	     -2.05302865	     -7.49999987	    -10.43251895	      0.18584127	     -0.66356344	     -1.02198660	    -10.47972399	     12.78347529	     18.17949619	     79.95549234	     -1.69073773	    -11.69630455	     14.38686013	     19.13520551	     82.07778032
      1.01666670	     -1.23458858	     -1.02128382	     -5.83414302	      0.70213392	      1.34079170	      0.08546668	     -0.01443848	      1.09064309	      7.96624637	      2.95921553	      0.05164805	     11.20548210	     -6.45776062	     -7.49999987	      1.74418781	     -1.26814679	      5.95622104	      9.10984290	      0.15899675	     12.48607608	     -2.10109233	     -7.49999987	    -10.43415891	      0.20192155	     -0.54236591	     -2.55830583	    -10.72884504	     12.80993669	     16.99316261	     79.12614363	     -2.79170426	    -11.80976115	     14.32142459	     17.91706171	     81.01047082
      1.03333330	     -1.29066264	     -1.03433030	     -5.76748418	      0.69597120	      1.34047955	      0.08157020	      0.16008879	      1.12676385	      8.07589577	      3.15763592	      0.05511114	     11.24404886	     -6.41662645	     -7.49999987	      2.03591714	     -1.25806965	      5.89564273	      9.32058434	      0.16267488	     12.43531734	     -2.10624552	     -7.49999987	    -11.08527489	      0.21783180	     -0.56213950	     -3.86698456	    -11.13252547	     12.82089253	     16.41921809	     79.18322597	     -3.99951629	    -12.09169486	     14.35716975	     17.36894630	     81.05813552
      1.05000000	     -2.28027932	     -0.98760615	     -5.80653233	      0.69640106	      1.34000099	      0.08151117	      1.50377019	      1.21276680	      8.10461773	      3.66849936	      0.06402739	     11.62974586	     -6.23962015	     -7.49999987	      3.50653667	     -1.27640320	      5.68234478	      9.87790930	      0.17240204	     12.70143295	     -2.11607895	     -7.49999987	    -10.41998843	      0.24190174	     -0.12030716	     -5.91144094	    -11.69889930	     14.29944395	     15.47774973	     80.55124347	     -5.27823279	    -12.45446915	     16.43317282	     16.22262223	     81.59625458
      1.06666670	     -3.01565333	     -0.96434032	     -5.71904401	      0.69714618	      1.33909893	      0.08157241	      2.44299978	      1.25017707	      7.85730462	      4.05639728	      0.07079749	     11.98715056	     -5.99586693	     -7.49999987	      4.58192679	     -1.26999990	      5.63953751	     10.26914229	      0.17923034	     12.92833779	     -2.06743331	     -7.49999987	    -10.32093680	      0.21005139	      0.09089688	     -8.74201548	    -12.29490867	     14.37129391	     15.98140867	     79.50201318	     -7.75049706	    -12.93781021	     16.42885030	     16.98834537	     80.45467824
      1.08333330	     -3.84984248	     -0.94369107	     -5.73464433	      0.69124387	      1.33913700	      0.08412363	      3.69049115	      1.34416902	      7.92527259	      4.66579062	      0.08143341	     12.11246712	     -6.30484522	     -7.49999987	      5.88184102	     -1.34121503	      5.33358448	     10.68466396	      0.18648257	     13.02119006	     -1.89925982	     -7.49999987	    -10.29984539	      0.10984281	      0.94241909	    -11.02879869	    -12.87270257	     17.77046453	     15.18240769	     82.14175638	     -9.55648772	    -13.56346006	     19.57716541	     16.14778222	     82.51168469
      1.10000000	     -4.59794955	     -0.85054530	     -5.83699338	      0.69874330	      1.33810817	      0.08186917	      4.75809978	      1.30279029	      7.82747179	      5.13410623	      0.08960706	     12.39581343	     -6.17846241	     -7.49999987	      6.86517385	     -1.27746247	      5.16483183	     10.91914741	      0.19057507	     13.03478651	     -1.92973248	     -7.49999987	    -10.37389450	     -0.06317705	      1.73341638	    -13.85515483	    -13.50751355	     20.63665391	     15.52747563	     83.59300159	    -12.02354572	    -14.33011918	     22.27966364	     16.15751415	     83.67751481
      1.11666670	     -5.59517966	     -0.78271043	     -5.87027309	      0.69319953	      1.33802185	      0.07765909	      6.23812218	      1.30504610	      7.73492637	      5.72789283	      0.09997059	     12.61968361	     -6.14801729	     -7.49999987	      8.28568772	     -1.25531876	      5.02050858	     11.36618828	      0.19837741	     13.16347842	     -1.81171397	     -7.49999987	    -10.57964872	     -0.18655419	      2.44969375	    -16.85788186	    -14.69792899	     25.18867209	     17.00177030	     84.93353857	    -14.60156959	    -15.56184995	     26.15057742	     17.34897863	     84.97356672
      1.13333330	     -6.87937850	     -0.71277441	     -5.97315913	      0.69455538	      1.33940465	      0.07771030	      8.05766492	      1.32525885	      7.68248252	      6.39156058	      0.11155378	     12.85592444	     -5.96768835	     -7.49999987	     10.06901259	     -1.27465613	      4.80118078	     11.95505272	      0.20865503	     13.14366554	     -1.85490842	     -7.49999987	    -10.63953781	     -0.25928630	      3.29451701	    -19.66879402	    -15.14312524	     27.62761160	     17.41054490	     85.52284701	    -16.76685655	    -16.57404061	     28.12357582	     18.52975916	     85.59185898
